<svg width="31" height="30" viewBox="0 0 31 30" fill="none" xmlns="http://www.w3.org/2000/svg">
<g clip-path="url(#clip0_3_3684)">
<path d="M19.7469 6.25C20.9678 6.48821 22.0899 7.08532 22.9694 7.96492C23.849 8.84452 24.4462 9.96658 24.6844 11.1875L19.7469 6.25ZM19.7469 1.25C22.2835 1.5318 24.6489 2.66772 26.4547 4.47126C28.2605 6.2748 29.3994 8.63876 29.6844 11.175L19.7469 1.25ZM28.4344 21.15V24.9C28.4358 25.2481 28.3645 25.5927 28.225 25.9117C28.0855 26.2307 27.881 26.517 27.6245 26.7523C27.3679 26.9877 27.0651 27.1669 26.7353 27.2784C26.4055 27.3899 26.0561 27.4313 25.7094 27.4C21.8629 26.9821 18.1681 25.6677 14.9219 23.5625C11.9017 21.6433 9.34104 19.0827 7.42187 16.0625C5.30934 12.8015 3.99467 9.08874 3.58436 5.225C3.55313 4.87933 3.59421 4.53095 3.70499 4.20203C3.81577 3.87311 3.99383 3.57086 4.22782 3.31453C4.46182 3.05819 4.74662 2.85339 5.0641 2.71315C5.38159 2.57292 5.72479 2.50033 6.07187 2.5H9.82187C10.4285 2.49403 11.0166 2.70885 11.4766 3.10442C11.9365 3.49998 12.237 4.04931 12.3219 4.65C12.4801 5.85008 12.7737 7.02841 13.1969 8.1625C13.365 8.6099 13.4014 9.09614 13.3017 9.5636C13.2021 10.0311 12.9704 10.4601 12.6344 10.8L11.0469 12.3875C12.8263 15.5169 15.4174 18.1081 18.5469 19.8875L20.1344 18.3C20.4742 17.9639 20.9033 17.7323 21.3708 17.6326C21.8382 17.5329 22.3245 17.5693 22.7719 17.7375C23.906 18.1607 25.0843 18.4542 26.2844 18.6125C26.8916 18.6982 27.4461 19.004 27.8425 19.4719C28.2389 19.9397 28.4496 20.537 28.4344 21.15Z" stroke="#486A6F" stroke-width="2" stroke-linecap="round" stroke-linejoin="round"/>
</g>
<defs>
<clipPath id="clip0_3_3684">
<rect width="30" height="30" fill="white" transform="translate(0.93457)"/>
</clipPath>
</defs>
</svg>
